<svg width="22" height="22" viewBox="0 0 22 22" fill="none" xmlns="http://www.w3.org/2000/svg">
<path d="M22 11.1654C22.001 10.4397 21.935 9.71521 21.8027 9H11V13.1015H17.1873C17.0607 13.7565 16.7927 14.381 16.3995 14.9372C16.0063 15.4933 15.4961 15.9698 14.8995 16.3377V19H18.5921C20.7543 17.1467 22 14.406 22 11.1654Z" fill="#4285F4"/>
<path d="M10.76 22C13.7079 22 16.19 21.0137 18 19.3133L14.4786 16.5307C13.4985 17.2078 12.2362 17.5943 10.76 17.5943C7.91075 17.5943 5.49237 15.6372 4.62758 13H1V15.8676C1.9092 17.711 3.30335 19.2606 5.02681 20.3435C6.75027 21.4264 8.73521 21.9999 10.76 22V22Z" fill="#34A853"/>
<path d="M5 13.1311C4.52285 11.7486 4.52285 10.2514 5 8.86885V6H1.21398C0.41573 7.55143 0 9.26368 0 11C0 12.7363 0.41573 14.4486 1.21398 16L5 13.1311Z" fill="#FBBC04"/>
<path d="M10.721 4.40608C12.2726 4.38015 13.7718 4.97982 14.8947 6.07547L18 2.89898C16.0309 1.00712 13.4223 -0.0315433 10.721 0.000730186C8.70427 0.000824205 6.72727 0.574282 5.0107 1.65708C3.29413 2.73988 1.90556 4.28941 1 6.13266L4.61307 9C5.4744 6.36298 7.88311 4.40608 10.721 4.40608Z" fill="#EA4335"/>
</svg>
