<svg width="65" height="65" viewBox="0 0 65 65" fill="none" xmlns="http://www.w3.org/2000/svg">
<path d="M0 30C0 15.8579 0 8.7868 4.3934 4.3934C8.7868 0 15.8579 0 30 0H35C49.1421 0 56.2132 0 60.6066 4.3934C65 8.7868 65 15.8579 65 30V35C65 49.1421 65 56.2132 60.6066 60.6066C56.2132 65 49.1421 65 35 65H30C15.8579 65 8.7868 65 4.3934 60.6066C0 56.2132 0 49.1421 0 35V30Z" fill="#F2994B"/>
<path d="M47.5 34.3938H34.375V28.75H36.25C38.3181 28.75 40 27.0681 40 25V17.5C40 15.4319 38.3181 13.75 36.25 13.75H28.75C26.6819 13.75 25 15.4319 25 17.5V25C25 27.0681 26.6819 28.75 28.75 28.75H30.625V34.3938H17.5V43.75H15.625V51.25H23.125V43.75H21.25V38.1438H30.625V43.75H28.75V51.25H36.25V43.75H34.375V38.1438H43.75V43.75H41.875V51.25H49.375V43.75H47.5V34.3938ZM28.75 25V17.5H36.25L36.2537 25H28.75Z" fill="white"/>
</svg>
