<svg width="65" height="65" viewBox="0 0 65 65" fill="none" xmlns="http://www.w3.org/2000/svg">
<path d="M0 30C0 15.8579 0 8.7868 4.3934 4.3934C8.7868 0 15.8579 0 30 0H35C49.1421 0 56.2132 0 60.6066 4.3934C65 8.7868 65 15.8579 65 30V35C65 49.1421 65 56.2132 60.6066 60.6066C56.2132 65 49.1421 65 35 65H30C15.8579 65 8.7868 65 4.3934 60.6066C0 56.2132 0 49.1421 0 35V30Z" fill="#F2994B"/>
<path d="M35.0832 47.5834V39.25H41.3332L32.9998 28.8334L24.6665 39.25H30.9165V47.5834H35.0832Z" fill="white"/>
<path d="M22.5832 47.5833H26.7498V43.4166H22.5832C19.1373 43.4166 16.3332 40.6125 16.3332 37.1666C16.3332 34.2416 18.8311 31.425 21.9019 30.8854L23.1123 30.6729L23.5123 29.5104C24.9769 25.2375 28.6144 22.5833 32.9998 22.5833C38.7436 22.5833 43.4165 27.2562 43.4165 33V35.0833H45.4998C47.7978 35.0833 49.6665 36.952 49.6665 39.25C49.6665 41.5479 47.7978 43.4166 45.4998 43.4166H39.2498V47.5833H45.4998C50.0957 47.5833 53.8332 43.8458 53.8332 39.25C53.83 37.3825 53.2012 35.5699 52.0471 34.1017C50.8931 32.6335 49.2804 31.5942 47.4665 31.15C46.5561 23.9791 40.4165 18.4166 32.9998 18.4166C27.2582 18.4166 22.2707 21.7729 19.9936 27.0625C15.5186 28.4 12.1665 32.625 12.1665 37.1666C12.1665 42.9104 16.8394 47.5833 22.5832 47.5833Z" fill="white"/>
</svg>
