<svg width="250" height="29" viewBox="0 0 250 29" fill="none" xmlns="http://www.w3.org/2000/svg">
<path d="M56.7927 25.203C55.3814 25.203 54.1054 24.9613 52.9647 24.478C51.8434 23.9947 50.9541 23.2987 50.2967 22.39C49.6394 21.4813 49.3011 20.4083 49.2817 19.171H53.6317C53.6897 20.0023 53.9797 20.6597 54.5017 21.143C55.0431 21.6263 55.7777 21.868 56.7057 21.868C57.6531 21.868 58.3974 21.6457 58.9387 21.201C59.4801 20.737 59.7507 20.1377 59.7507 19.403C59.7507 18.8037 59.5671 18.3107 59.1997 17.924C58.8324 17.5373 58.3684 17.2377 57.8077 17.025C57.2664 16.793 56.5124 16.5417 55.5457 16.271C54.2311 15.8843 53.1581 15.5073 52.3267 15.14C51.5147 14.7533 50.8091 14.183 50.2097 13.429C49.6297 12.6557 49.3397 11.631 49.3397 10.355C49.3397 9.15633 49.6394 8.11233 50.2387 7.223C50.8381 6.33367 51.6791 5.657 52.7617 5.193C53.8444 4.70967 55.0817 4.468 56.4737 4.468C58.5617 4.468 60.2534 4.98033 61.5487 6.005C62.8634 7.01033 63.5884 8.42167 63.7237 10.239H59.2577C59.2191 9.543 58.9194 8.97267 58.3587 8.528C57.8174 8.064 57.0924 7.832 56.1837 7.832C55.3911 7.832 54.7531 8.035 54.2697 8.441C53.8057 8.847 53.5737 9.43667 53.5737 10.21C53.5737 10.7513 53.7477 11.2057 54.0957 11.573C54.4631 11.921 54.9077 12.211 55.4297 12.443C55.9711 12.6557 56.7251 12.907 57.6917 13.197C59.0064 13.5837 60.0794 13.9703 60.9107 14.357C61.7421 14.7437 62.4574 15.3237 63.0567 16.097C63.6561 16.8703 63.9557 17.8853 63.9557 19.142C63.9557 20.2247 63.6754 21.23 63.1147 22.158C62.5541 23.086 61.7324 23.8303 60.6497 24.391C59.5671 24.9323 58.2814 25.203 56.7927 25.203ZM72.2026 12.269V20.041C72.2026 20.5823 72.3283 20.9787 72.5796 21.23C72.8503 21.462 73.2949 21.578 73.9136 21.578H75.7986V25H73.2466C69.8246 25 68.1136 23.3373 68.1136 20.012V12.269H66.1996V8.934H68.1136V4.961H72.2026V8.934H75.7986V12.269H72.2026ZM77.6748 16.909C77.6748 15.285 77.9938 13.8447 78.6318 12.588C79.2891 11.3313 80.1688 10.3647 81.2708 9.688C82.3921 9.01133 83.6391 8.673 85.0118 8.673C86.2104 8.673 87.2544 8.91467 88.1438 9.398C89.0524 9.88133 89.7774 10.4903 90.3188 11.225V8.934H94.4078V25H90.3188V22.651C89.7968 23.405 89.0718 24.0333 88.1438 24.536C87.2351 25.0193 86.1814 25.261 84.9828 25.261C83.6294 25.261 82.3921 24.913 81.2708 24.217C80.1688 23.521 79.2891 22.5447 78.6318 21.288C77.9938 20.012 77.6748 18.5523 77.6748 16.909ZM90.3188 16.967C90.3188 15.981 90.1254 15.14 89.7388 14.444C89.3521 13.7287 88.8301 13.1873 88.1728 12.82C87.5154 12.4333 86.8098 12.24 86.0558 12.24C85.3018 12.24 84.6058 12.4237 83.9678 12.791C83.3298 13.1583 82.8078 13.6997 82.4018 14.415C82.0151 15.111 81.8218 15.9423 81.8218 16.909C81.8218 17.8757 82.0151 18.7263 82.4018 19.461C82.8078 20.1763 83.3298 20.7273 83.9678 21.114C84.6251 21.5007 85.3211 21.694 86.0558 21.694C86.8098 21.694 87.5154 21.5103 88.1728 21.143C88.8301 20.7563 89.3521 20.215 89.7388 19.519C90.1254 18.8037 90.3188 17.953 90.3188 16.967ZM102.433 11.428C102.955 10.5773 103.632 9.91033 104.463 9.427C105.314 8.94367 106.28 8.702 107.363 8.702V12.965H106.29C105.014 12.965 104.047 13.2647 103.39 13.864C102.752 14.4633 102.433 15.5073 102.433 16.996V25H98.3731V8.934H102.433V11.428ZM114.825 12.269V20.041C114.825 20.5823 114.95 20.9787 115.202 21.23C115.472 21.462 115.917 21.578 116.536 21.578H118.421V25H115.869C112.447 25 110.736 23.3373 110.736 20.012V12.269H108.822V8.934H110.736V4.961H114.825V8.934H118.421V12.269H114.825ZM127.265 14.85C127.265 12.8587 127.71 11.08 128.599 9.514C129.508 7.92867 130.735 6.701 132.282 5.831C133.848 4.94167 135.598 4.497 137.531 4.497C139.793 4.497 141.775 5.077 143.476 6.237C145.177 7.397 146.366 9.00167 147.043 11.051H142.374C141.91 10.0843 141.253 9.35933 140.402 8.876C139.571 8.39267 138.604 8.151 137.502 8.151C136.323 8.151 135.269 8.43133 134.341 8.992C133.432 9.53333 132.717 10.3067 132.195 11.312C131.692 12.3173 131.441 13.4967 131.441 14.85C131.441 16.184 131.692 17.3633 132.195 18.388C132.717 19.3933 133.432 20.1763 134.341 20.737C135.269 21.2783 136.323 21.549 137.502 21.549C138.604 21.549 139.571 21.3073 140.402 20.824C141.253 20.3213 141.91 19.5867 142.374 18.62H147.043C146.366 20.6887 145.177 22.303 143.476 23.463C141.794 24.6037 139.812 25.174 137.531 25.174C135.598 25.174 133.848 24.739 132.282 23.869C130.735 22.9797 129.508 21.752 128.599 20.186C127.71 18.62 127.265 16.8413 127.265 14.85ZM149.467 16.909C149.467 15.285 149.786 13.8447 150.424 12.588C151.081 11.3313 151.961 10.3647 153.063 9.688C154.184 9.01133 155.431 8.673 156.804 8.673C158.002 8.673 159.046 8.91467 159.936 9.398C160.844 9.88133 161.569 10.4903 162.111 11.225V8.934H166.2V25H162.111V22.651C161.589 23.405 160.864 24.0333 159.936 24.536C159.027 25.0193 157.973 25.261 156.775 25.261C155.421 25.261 154.184 24.913 153.063 24.217C151.961 23.521 151.081 22.5447 150.424 21.288C149.786 20.012 149.467 18.5523 149.467 16.909ZM162.111 16.967C162.111 15.981 161.917 15.14 161.531 14.444C161.144 13.7287 160.622 13.1873 159.965 12.82C159.307 12.4333 158.602 12.24 157.848 12.24C157.094 12.24 156.398 12.4237 155.76 12.791C155.122 13.1583 154.6 13.6997 154.194 14.415C153.807 15.111 153.614 15.9423 153.614 16.909C153.614 17.8757 153.807 18.7263 154.194 19.461C154.6 20.1763 155.122 20.7273 155.76 21.114C156.417 21.5007 157.113 21.694 157.848 21.694C158.602 21.694 159.307 21.5103 159.965 21.143C160.622 20.7563 161.144 20.215 161.531 19.519C161.917 18.8037 162.111 17.953 162.111 16.967ZM174.225 11.428C174.747 10.5773 175.424 9.91033 176.255 9.427C177.106 8.94367 178.072 8.702 179.155 8.702V12.965H178.082C176.806 12.965 175.839 13.2647 175.182 13.864C174.544 14.4633 174.225 15.5073 174.225 16.996V25H170.165V8.934H174.225V11.428ZM185.95 11.428C186.472 10.5773 187.148 9.91033 187.98 9.427C188.83 8.94367 189.797 8.702 190.88 8.702V12.965H189.807C188.531 12.965 187.564 13.2647 186.907 13.864C186.269 14.4633 185.95 15.5073 185.95 16.996V25H181.89V8.934H185.95V11.428ZM208.549 16.619C208.549 17.199 208.511 17.721 208.433 18.185H196.688C196.785 19.345 197.191 20.2537 197.906 20.911C198.622 21.5683 199.501 21.897 200.545 21.897C202.053 21.897 203.126 21.2493 203.764 19.954H208.143C207.679 21.5007 206.79 22.7767 205.475 23.782C204.161 24.768 202.546 25.261 200.632 25.261C199.086 25.261 197.694 24.9227 196.456 24.246C195.238 23.55 194.281 22.5737 193.585 21.317C192.909 20.0603 192.57 18.6103 192.57 16.967C192.57 15.3043 192.909 13.8447 193.585 12.588C194.262 11.3313 195.209 10.3647 196.427 9.688C197.645 9.01133 199.047 8.673 200.632 8.673C202.16 8.673 203.523 9.00167 204.721 9.659C205.939 10.3163 206.877 11.254 207.534 12.472C208.211 13.6707 208.549 15.053 208.549 16.619ZM204.344 15.459C204.325 14.415 203.948 13.5837 203.213 12.965C202.479 12.327 201.58 12.008 200.516 12.008C199.511 12.008 198.66 12.3173 197.964 12.936C197.288 13.5353 196.872 14.3763 196.717 15.459H204.344ZM213.572 7.02C212.856 7.02 212.257 6.79767 211.774 6.353C211.31 5.889 211.078 5.31867 211.078 4.642C211.078 3.96533 211.31 3.40467 211.774 2.96C212.257 2.496 212.856 2.264 213.572 2.264C214.287 2.264 214.877 2.496 215.341 2.96C215.824 3.40467 216.066 3.96533 216.066 4.642C216.066 5.31867 215.824 5.889 215.341 6.353C214.877 6.79767 214.287 7.02 213.572 7.02ZM215.573 8.934V25H211.513V8.934H215.573ZM223.644 11.428C224.166 10.5773 224.843 9.91033 225.674 9.427C226.525 8.94367 227.491 8.702 228.574 8.702V12.965H227.501C226.225 12.965 225.258 13.2647 224.601 13.864C223.963 14.4633 223.644 15.5073 223.644 16.996V25H219.584V8.934H223.644V11.428ZM230.265 16.909C230.265 15.285 230.584 13.8447 231.222 12.588C231.879 11.3313 232.759 10.3647 233.861 9.688C234.982 9.01133 236.229 8.673 237.602 8.673C238.8 8.673 239.844 8.91467 240.734 9.398C241.642 9.88133 242.367 10.4903 242.909 11.225V8.934H246.998V25H242.909V22.651C242.387 23.405 241.662 24.0333 240.734 24.536C239.825 25.0193 238.771 25.261 237.573 25.261C236.219 25.261 234.982 24.913 233.861 24.217C232.759 23.521 231.879 22.5447 231.222 21.288C230.584 20.012 230.265 18.5523 230.265 16.909ZM242.909 16.967C242.909 15.981 242.715 15.14 242.329 14.444C241.942 13.7287 241.42 13.1873 240.763 12.82C240.105 12.4333 239.4 12.24 238.646 12.24C237.892 12.24 237.196 12.4237 236.558 12.791C235.92 13.1583 235.398 13.6997 234.992 14.415C234.605 15.111 234.412 15.9423 234.412 16.909C234.412 17.8757 234.605 18.7263 234.992 19.461C235.398 20.1763 235.92 20.7273 236.558 21.114C237.215 21.5007 237.911 21.694 238.646 21.694C239.4 21.694 240.105 21.5103 240.763 21.143C241.42 20.7563 241.942 20.215 242.329 19.519C242.715 18.8037 242.909 17.953 242.909 16.967Z" fill="white"/>
<path d="M11.5574 6.14455C11.5574 2.75101 8.97014 0 5.77869 0C2.5872 0 0 2.75101 0 6.14455V22.8554C0 26.249 2.5872 29 5.77869 29C8.97014 29 11.5574 26.249 11.5574 22.8554V6.14455Z" fill="#3E478E"/>
<path d="M39.8028 6.17327C39.8028 2.76387 37.2035 0 33.9971 0C30.7907 0 28.1914 2.76387 28.1914 6.17327V22.8267C28.1914 26.2362 30.7907 29 33.9971 29C37.2035 29 39.8028 26.2362 39.8028 22.8267V6.17327Z" fill="#828FFF"/>
<path d="M25.6531 6.14455C25.6531 2.75101 23.0658 0 19.8744 0C16.6829 0 14.0957 2.75101 14.0957 6.14455V22.8554C14.0957 26.249 16.6829 29 19.8744 29C23.0658 29 25.6531 26.249 25.6531 22.8554V6.14455Z" fill="#6772D7"/>
</svg>
