<svg width="174" height="120" viewBox="0 0 174 120" fill="none" xmlns="http://www.w3.org/2000/svg">
<path d="M50.5237 25.2619C50.5237 11.3101 39.2135 0 25.2619 0C11.3101 0 0 11.3101 0 25.2619V93.9647C0 107.916 11.3101 119.227 25.2619 119.227C39.2135 119.227 50.5237 107.916 50.5237 93.9647V25.2619Z" fill="#3E478E"/>
<path d="M174 25.3799C174 11.363 162.637 0 148.62 0C134.603 0 123.24 11.363 123.24 25.3799V93.8467C123.24 107.864 134.603 119.227 148.62 119.227C162.637 119.227 174 107.864 174 93.8467V25.3799Z" fill="#828FFF"/>
<path d="M112.144 25.2619C112.144 11.3101 100.834 0 86.882 0C72.9304 0 61.6201 11.3101 61.6201 25.2619V93.9647C61.6201 107.916 72.9304 119.227 86.882 119.227C100.834 119.227 112.144 107.916 112.144 93.9647V25.2619Z" fill="#6772D7"/>
</svg>
