<svg width="218" height="29" viewBox="0 0 218 29" fill="none" xmlns="http://www.w3.org/2000/svg">
<path d="M12.0085 6.00426C12.0085 2.6882 9.32032 0 6.00426 0C2.6882 0 0 2.6882 0 6.00426V22.3336C0 25.6497 2.6882 28.3379 6.00426 28.3379C9.32032 28.3379 12.0085 25.6497 12.0085 22.3336V6.00426Z" fill="#DF773B"/>
<path d="M41.3564 6.03232C41.3564 2.70076 38.6556 0 35.3241 0C31.9925 0 29.2917 2.70076 29.2917 6.03232V22.3055C29.2917 25.6371 31.9925 28.3379 35.3241 28.3379C38.6556 28.3379 41.3564 25.6371 41.3564 22.3055V6.03232Z" fill="#F2994B"/>
<path d="M26.6545 6.00426C26.6545 2.6882 23.9663 0 20.6503 0C17.3342 0 14.646 2.6882 14.646 6.00426V22.3336C14.646 25.6497 17.3342 28.3379 20.6503 28.3379C23.9663 28.3379 26.6545 25.6497 26.6545 22.3336V6.00426Z" fill="#9E75F5"/>
<path d="M46 24.6671L52.8494 4H58.4485L65.2978 24.6671H60.7044L59.3454 20.4505H51.9252L50.5662 24.6671H46ZM53.094 16.7054H58.1767L55.0781 6.94055H56.2197L53.094 16.7054ZM67.1033 24.6671V9.52048H70.9085V13.1546L70.6367 12.6275C70.9628 11.3514 71.4976 10.4914 72.2403 10.0476C73.0013 9.58518 73.8983 9.35403 74.9311 9.35403H75.8009V12.9604H74.5234C73.5266 12.9604 72.7207 13.2747 72.1044 13.9036C71.4881 14.5139 71.1803 15.3831 71.1803 16.5112V24.6671H67.1033ZM85.267 24.8336C83.4731 24.8336 82.0774 24.3434 81.0813 23.3633C80.1028 22.3646 79.6135 20.9775 79.6135 19.2021V13.1268H77.113V9.52048H77.2489C78.0099 9.52048 78.5895 9.32629 78.9884 8.93791C79.4049 8.54954 79.6135 7.96697 79.6135 7.19022V6.08058H83.6905V9.52048H87.1696V13.1268H83.6905V18.9247C83.6905 19.4426 83.7809 19.8771 83.9623 20.2285C84.1431 20.5614 84.4244 20.8111 84.8049 20.9775C85.1854 21.144 85.6563 21.2272 86.2183 21.2272C86.3447 21.2272 86.4901 21.218 86.6532 21.1995C86.8163 21.181 86.9882 21.1625 87.1696 21.144V24.6671C86.8978 24.7041 86.5893 24.7411 86.2455 24.7781C85.901 24.815 85.5748 24.8336 85.267 24.8336ZM96.7071 25C95.1306 25 93.7621 24.6486 92.6029 23.9458C91.443 23.2246 90.546 22.2629 89.9121 21.0608C89.2774 19.8587 88.9608 18.5271 88.9608 17.066C88.9608 15.5495 89.2869 14.1995 89.9392 13.0159C90.6092 11.8322 91.5062 10.8983 92.6301 10.214C93.7533 9.5297 95.0219 9.18758 96.4353 9.18758C97.6128 9.18758 98.6545 9.38177 99.561 9.77015C100.467 10.14 101.228 10.6671 101.844 11.3514C102.478 12.0357 102.958 12.8309 103.285 13.7371C103.611 14.6248 103.774 15.5958 103.774 16.6499C103.774 16.9459 103.756 17.2417 103.72 17.5376C103.701 17.8151 103.656 18.0555 103.584 18.2589H92.467V15.2074H101.273L99.3435 16.6499C99.5243 15.8547 99.5154 15.1519 99.3163 14.5416C99.1166 13.9128 98.7632 13.4227 98.2563 13.0713C97.7671 12.7015 97.1596 12.5165 96.4353 12.5165C95.7286 12.5165 95.1211 12.6922 94.6142 13.0436C94.1066 13.395 93.7261 13.9128 93.4726 14.5971C93.2185 15.2814 93.1193 16.1136 93.1737 17.0938C93.101 17.9445 93.2008 18.6936 93.4726 19.3408C93.7444 19.9881 94.161 20.4967 94.7229 20.8666C95.2842 21.218 95.9637 21.3937 96.7614 21.3937C97.4858 21.3937 98.1021 21.2457 98.6097 20.9498C99.1349 20.6539 99.5426 20.2471 99.8328 19.7292L103.094 21.3104C102.804 22.0502 102.342 22.6975 101.708 23.2523C101.092 23.8071 100.358 24.2418 99.5066 24.5561C98.6545 24.8521 97.7216 25 96.7071 25ZM106.175 24.6671V9.52048H109.98V13.21L109.572 12.5997C109.789 11.4346 110.315 10.5746 111.148 10.0198C111.982 9.46499 112.978 9.18758 114.138 9.18758C115.37 9.18758 116.449 9.51125 117.373 10.1585C118.315 10.7873 118.904 11.638 119.139 12.7107L117.971 12.8217C118.46 11.5825 119.158 10.6671 120.064 10.0753C120.969 9.48351 122.029 9.18758 123.244 9.18758C124.312 9.18758 125.255 9.42803 126.07 9.90885C126.904 10.3897 127.556 11.0648 128.027 11.9339C128.498 12.7847 128.734 13.7834 128.734 14.93V24.6671H124.657V15.8177C124.657 15.2259 124.548 14.7173 124.331 14.2919C124.132 13.8666 123.842 13.5337 123.461 13.2933C123.081 13.0528 122.618 12.9326 122.075 12.9326C121.55 12.9326 121.088 13.0528 120.689 13.2933C120.308 13.5337 120.009 13.8666 119.792 14.2919C119.593 14.7173 119.493 15.2259 119.493 15.8177V24.6671H115.416V15.8177C115.416 15.2259 115.307 14.7173 115.09 14.2919C114.891 13.8666 114.6 13.5337 114.22 13.2933C113.839 13.0528 113.377 12.9326 112.834 12.9326C112.308 12.9326 111.846 13.0528 111.447 13.2933C111.067 13.5337 110.768 13.8666 110.551 14.2919C110.351 14.7173 110.252 15.2259 110.252 15.8177V24.6671H106.175ZM131.417 24.6671V9.52048H135.494V24.6671H131.417ZM131.417 8.16116V4H135.494V8.16116H131.417ZM144.294 25C142.663 25 141.241 24.6116 140.027 23.8349C138.831 23.0396 138.015 21.9762 137.58 20.6447L140.57 19.2021C140.951 20.0158 141.467 20.6539 142.119 21.1162C142.772 21.5786 143.497 21.8098 144.294 21.8098C144.873 21.8098 145.318 21.6896 145.626 21.4491C145.934 21.2087 146.088 20.8758 146.088 20.4505C146.088 20.2285 146.033 20.0436 145.925 19.8956C145.816 19.7292 145.653 19.5813 145.435 19.4518C145.218 19.3223 144.946 19.2113 144.62 19.1189L142.092 18.3976C140.878 18.0462 139.945 17.4822 139.293 16.7054C138.64 15.9101 138.314 14.9762 138.314 13.9036C138.314 12.9604 138.55 12.1374 139.021 11.4346C139.492 10.7319 140.154 10.1863 141.005 9.79789C141.856 9.39099 142.835 9.18758 143.941 9.18758C145.39 9.18758 146.659 9.53899 147.746 10.2417C148.851 10.926 149.63 11.897 150.083 13.1546L147.066 14.5971C146.849 13.9683 146.45 13.4689 145.87 13.0991C145.308 12.7107 144.666 12.5165 143.941 12.5165C143.415 12.5165 142.998 12.6275 142.69 12.8494C142.4 13.0713 142.255 13.3765 142.255 13.7649C142.255 13.9683 142.31 14.1532 142.418 14.3197C142.527 14.4861 142.699 14.6341 142.935 14.7635C143.188 14.893 143.497 15.0132 143.859 15.1242L146.224 15.8454C147.456 16.2153 148.398 16.7794 149.05 17.5376C149.703 18.2774 150.029 19.1929 150.029 20.284C150.029 21.2272 149.784 22.0502 149.295 22.753C148.824 23.4557 148.162 24.0105 147.311 24.4174C146.459 24.8058 145.454 25 144.294 25ZM157.648 24.6671V4H161.861V12.9326H169.743V4H173.956V24.6671H169.743V16.6777H161.861V24.6671H157.648ZM184.622 25C183.155 25 181.814 24.6579 180.6 23.9736C179.404 23.2893 178.444 22.3554 177.719 21.1717C177.012 19.9696 176.658 18.6103 176.658 17.0938C176.658 15.5588 177.012 14.1995 177.719 13.0159C178.444 11.8322 179.404 10.8983 180.6 10.214C181.814 9.5297 183.155 9.18758 184.622 9.18758C186.09 9.18758 187.422 9.5297 188.618 10.214C189.814 10.8983 190.765 11.8322 191.472 13.0159C192.197 14.1995 192.559 15.5588 192.559 17.0938C192.559 18.6103 192.197 19.9696 191.472 21.1717C190.765 22.3554 189.814 23.2893 188.618 23.9736C187.422 24.6579 186.09 25 184.622 25ZM184.622 21.255C185.366 21.255 186.008 21.0793 186.552 20.7279C187.114 20.3765 187.549 19.8864 187.857 19.2576C188.183 18.6288 188.346 17.9075 188.346 17.0938C188.346 16.2801 188.183 15.568 187.857 14.9577C187.549 14.3289 187.114 13.8389 186.552 13.4874C186.008 13.1176 185.366 12.9326 184.622 12.9326C183.88 12.9326 183.227 13.1176 182.665 13.4874C182.104 13.8389 181.66 14.3289 181.333 14.9577C181.026 15.568 180.871 16.2801 180.871 17.0938C180.871 17.9075 181.026 18.6288 181.333 19.2576C181.66 19.8864 182.104 20.3765 182.665 20.7279C183.227 21.0793 183.88 21.255 184.622 21.255ZM200.777 25C199.147 25 197.724 24.6116 196.51 23.8349C195.314 23.0396 194.499 21.9762 194.064 20.6447L197.054 19.2021C197.434 20.0158 197.951 20.6539 198.603 21.1162C199.255 21.5786 199.98 21.8098 200.777 21.8098C201.357 21.8098 201.801 21.6896 202.109 21.4491C202.417 21.2087 202.571 20.8758 202.571 20.4505C202.571 20.2285 202.517 20.0436 202.408 19.8956C202.299 19.7292 202.136 19.5813 201.919 19.4518C201.701 19.3223 201.43 19.2113 201.104 19.1189L198.576 18.3976C197.362 18.0462 196.429 17.4822 195.776 16.7054C195.124 15.9101 194.798 14.9762 194.798 13.9036C194.798 12.9604 195.034 12.1374 195.504 11.4346C195.975 10.7319 196.637 10.1863 197.489 9.79789C198.34 9.39099 199.318 9.18758 200.424 9.18758C201.873 9.18758 203.142 9.53899 204.229 10.2417C205.335 10.926 206.113 11.897 206.567 13.1546L203.55 14.5971C203.332 13.9683 202.933 13.4689 202.354 13.0991C201.792 12.7107 201.149 12.5165 200.424 12.5165C199.899 12.5165 199.482 12.6275 199.174 12.8494C198.884 13.0713 198.739 13.3765 198.739 13.7649C198.739 13.9683 198.793 14.1532 198.902 14.3197C199.011 14.4861 199.183 14.6341 199.418 14.7635C199.672 14.893 199.98 15.0132 200.342 15.1242L202.707 15.8454C203.939 16.2153 204.882 16.7794 205.534 17.5376C206.186 18.2774 206.512 19.1929 206.512 20.284C206.512 21.2272 206.268 22.0502 205.779 22.753C205.308 23.4557 204.646 24.0105 203.794 24.4174C202.943 24.8058 201.937 25 200.777 25ZM216.097 24.8336C214.304 24.8336 212.908 24.3434 211.912 23.3633C210.933 22.3646 210.444 20.9775 210.444 19.2021V13.1268H207.943V9.52048H208.079C208.84 9.52048 209.42 9.32629 209.819 8.93791C210.235 8.54954 210.444 7.96697 210.444 7.19022V6.08058H214.521V9.52048H218V13.1268H214.521V18.9247C214.521 19.4426 214.611 19.8771 214.793 20.2285C214.974 20.5614 215.255 20.8111 215.635 20.9775C216.016 21.144 216.487 21.2272 217.049 21.2272C217.176 21.2272 217.32 21.218 217.484 21.1995C217.647 21.181 217.819 21.1625 218 21.144V24.6671C217.728 24.7041 217.42 24.7411 217.076 24.7781C216.731 24.815 216.405 24.8336 216.097 24.8336Z" fill="black"/>
</svg>
